<svg width="118" height="24" viewBox="0 0 118 24" fill="none" xmlns="http://www.w3.org/2000/svg">
<path d="M11.3281 16.1602V18H2.79688V16.1602H11.3281ZM3.24219 0.9375V18H0.980469V0.9375H3.24219ZM20.832 15.0703V5.32031H23.0117V18H20.9375L20.832 15.0703ZM21.2422 12.3984L22.1445 12.375C22.1445 13.2188 22.0547 14 21.875 14.7188C21.7031 15.4297 21.4219 16.0469 21.0312 16.5703C20.6406 17.0938 20.1289 17.5039 19.4961 17.8008C18.8633 18.0898 18.0938 18.2344 17.1875 18.2344C16.5703 18.2344 16.0039 18.1445 15.4883 17.9648C14.9805 17.7852 14.543 17.5078 14.1758 17.1328C13.8086 16.7578 13.5234 16.2695 13.3203 15.668C13.125 15.0664 13.0273 14.3438 13.0273 13.5V5.32031H15.1953V13.5234C15.1953 14.0938 15.2578 14.5664 15.3828 14.9414C15.5156 15.3086 15.6914 15.6016 15.9102 15.8203C16.1367 16.0312 16.3867 16.1797 16.6602 16.2656C16.9414 16.3516 17.2305 16.3945 17.5273 16.3945C18.4492 16.3945 19.1797 16.2188 19.7188 15.8672C20.2578 15.5078 20.6445 15.0273 20.8789 14.4258C21.1211 13.8164 21.2422 13.1406 21.2422 12.3984ZM27.7812 5.32031L30.5586 9.9375L33.3711 5.32031H35.9141L31.7656 11.5781L36.043 18H33.5352L30.6055 13.2422L27.6758 18H25.1562L29.4219 11.5781L25.2852 5.32031H27.7812ZM45.9805 15.0703V5.32031H48.1602V18H46.0859L45.9805 15.0703ZM46.3906 12.3984L47.293 12.375C47.293 13.2188 47.2031 14 47.0234 14.7188C46.8516 15.4297 46.5703 16.0469 46.1797 16.5703C45.7891 17.0938 45.2773 17.5039 44.6445 17.8008C44.0117 18.0898 43.2422 18.2344 42.3359 18.2344C41.7188 18.2344 41.1523 18.1445 40.6367 17.9648C40.1289 17.7852 39.6914 17.5078 39.3242 17.1328C38.957 16.7578 38.6719 16.2695 38.4688 15.668C38.2734 15.0664 38.1758 14.3438 38.1758 13.5V5.32031H40.3438V13.5234C40.3438 14.0938 40.4062 14.5664 40.5312 14.9414C40.6641 15.3086 40.8398 15.6016 41.0586 15.8203C41.2852 16.0312 41.5352 16.1797 41.8086 16.2656C42.0898 16.3516 42.3789 16.3945 42.6758 16.3945C43.5977 16.3945 44.3281 16.2188 44.8672 15.8672C45.4062 15.5078 45.793 15.0273 46.0273 14.4258C46.2695 13.8164 46.3906 13.1406 46.3906 12.3984ZM53.6328 7.3125V18H51.4648V5.32031H53.5742L53.6328 7.3125ZM57.5938 5.25L57.582 7.26562C57.4023 7.22656 57.2305 7.20312 57.0664 7.19531C56.9102 7.17969 56.7305 7.17188 56.5273 7.17188C56.0273 7.17188 55.5859 7.25 55.2031 7.40625C54.8203 7.5625 54.4961 7.78125 54.2305 8.0625C53.9648 8.34375 53.7539 8.67969 53.5977 9.07031C53.4492 9.45312 53.3516 9.875 53.3047 10.3359L52.6953 10.6875C52.6953 9.92188 52.7695 9.20312 52.918 8.53125C53.0742 7.85938 53.3125 7.26562 53.6328 6.75C53.9531 6.22656 54.3594 5.82031 54.8516 5.53125C55.3516 5.23438 55.9453 5.08594 56.6328 5.08594C56.7891 5.08594 56.9688 5.10547 57.1719 5.14453C57.375 5.17578 57.5156 5.21094 57.5938 5.25ZM63.3711 16.6875L66.8984 5.32031H69.2188L64.1328 19.957C64.0156 20.2695 63.8594 20.6055 63.6641 20.9648C63.4766 21.332 63.2344 21.6797 62.9375 22.0078C62.6406 22.3359 62.2812 22.6016 61.8594 22.8047C61.4453 23.0156 60.9492 23.1211 60.3711 23.1211C60.1992 23.1211 59.9805 23.0977 59.7148 23.0508C59.4492 23.0039 59.2617 22.9648 59.1523 22.9336L59.1406 21.1758C59.2031 21.1836 59.3008 21.1914 59.4336 21.1992C59.5742 21.2148 59.6719 21.2227 59.7266 21.2227C60.2188 21.2227 60.6367 21.1562 60.9805 21.0234C61.3242 20.8984 61.6133 20.6836 61.8477 20.3789C62.0898 20.082 62.2969 19.6719 62.4688 19.1484L63.3711 16.6875ZM60.7812 5.32031L64.0742 15.1641L64.6367 17.4492L63.0781 18.2461L58.4141 5.32031H60.7812ZM81.8047 12.5742H84.0547C83.9375 13.6523 83.6289 14.6172 83.1289 15.4688C82.6289 16.3203 81.9219 16.9961 81.0078 17.4961C80.0938 17.9883 78.9531 18.2344 77.5859 18.2344C76.5859 18.2344 75.6758 18.0469 74.8555 17.6719C74.043 17.2969 73.3438 16.7656 72.7578 16.0781C72.1719 15.3828 71.7188 14.5508 71.3984 13.582C71.0859 12.6055 70.9297 11.5195 70.9297 10.3242V8.625C70.9297 7.42969 71.0859 6.34766 71.3984 5.37891C71.7188 4.40234 72.1758 3.56641 72.7695 2.87109C73.3711 2.17578 74.0938 1.64062 74.9375 1.26562C75.7812 0.890625 76.7305 0.703125 77.7852 0.703125C79.0742 0.703125 80.1641 0.945313 81.0547 1.42969C81.9453 1.91406 82.6367 2.58594 83.1289 3.44531C83.6289 4.29688 83.9375 5.28516 84.0547 6.41016H81.8047C81.6953 5.61328 81.4922 4.92969 81.1953 4.35938C80.8984 3.78125 80.4766 3.33594 79.9297 3.02344C79.3828 2.71094 78.668 2.55469 77.7852 2.55469C77.0273 2.55469 76.3594 2.69922 75.7812 2.98828C75.2109 3.27734 74.7305 3.6875 74.3398 4.21875C73.957 4.75 73.668 5.38672 73.4727 6.12891C73.2773 6.87109 73.1797 7.69531 73.1797 8.60156V10.3242C73.1797 11.1602 73.2656 11.9453 73.4375 12.6797C73.6172 13.4141 73.8867 14.0586 74.2461 14.6133C74.6055 15.168 75.0625 15.6055 75.6172 15.9258C76.1719 16.2383 76.8281 16.3945 77.5859 16.3945C78.5469 16.3945 79.3125 16.2422 79.8828 15.9375C80.4531 15.6328 80.8828 15.1953 81.1719 14.625C81.4688 14.0547 81.6797 13.3711 81.8047 12.5742ZM94.2852 15.832V9.30469C94.2852 8.80469 94.1836 8.37109 93.9805 8.00391C93.7852 7.62891 93.4883 7.33984 93.0898 7.13672C92.6914 6.93359 92.1992 6.83203 91.6133 6.83203C91.0664 6.83203 90.5859 6.92578 90.1719 7.11328C89.7656 7.30078 89.4453 7.54688 89.2109 7.85156C88.9844 8.15625 88.8711 8.48438 88.8711 8.83594H86.7031C86.7031 8.38281 86.8203 7.93359 87.0547 7.48828C87.2891 7.04297 87.625 6.64062 88.0625 6.28125C88.5078 5.91406 89.0391 5.625 89.6562 5.41406C90.2812 5.19531 90.9766 5.08594 91.7422 5.08594C92.6641 5.08594 93.4766 5.24219 94.1797 5.55469C94.8906 5.86719 95.4453 6.33984 95.8438 6.97266C96.25 7.59766 96.4531 8.38281 96.4531 9.32812V15.2344C96.4531 15.6562 96.4883 16.1055 96.5586 16.582C96.6367 17.0586 96.75 17.4688 96.8984 17.8125V18H94.6367C94.5273 17.75 94.4414 17.418 94.3789 17.0039C94.3164 16.582 94.2852 16.1914 94.2852 15.832ZM94.6602 10.3125L94.6836 11.8359H92.4922C91.875 11.8359 91.3242 11.8867 90.8398 11.9883C90.3555 12.082 89.9492 12.2266 89.6211 12.4219C89.293 12.6172 89.043 12.8633 88.8711 13.1602C88.6992 13.4492 88.6133 13.7891 88.6133 14.1797C88.6133 14.5781 88.7031 14.9414 88.8828 15.2695C89.0625 15.5977 89.332 15.8594 89.6914 16.0547C90.0586 16.2422 90.5078 16.3359 91.0391 16.3359C91.7031 16.3359 92.2891 16.1953 92.7969 15.9141C93.3047 15.6328 93.707 15.2891 94.0039 14.8828C94.3086 14.4766 94.4727 14.082 94.4961 13.6992L95.4219 14.7422C95.3672 15.0703 95.2188 15.4336 94.9766 15.832C94.7344 16.2305 94.4102 16.6133 94.0039 16.9805C93.6055 17.3398 93.1289 17.6406 92.5742 17.8828C92.0273 18.1172 91.4102 18.2344 90.7227 18.2344C89.8633 18.2344 89.1094 18.0664 88.4609 17.7305C87.8203 17.3945 87.3203 16.9453 86.9609 16.3828C86.6094 15.8125 86.4336 15.1758 86.4336 14.4727C86.4336 13.793 86.5664 13.1953 86.832 12.6797C87.0977 12.1562 87.4805 11.7227 87.9805 11.3789C88.4805 11.0273 89.082 10.7617 89.7852 10.582C90.4883 10.4023 91.2734 10.3125 92.1406 10.3125H94.6602ZM102.031 7.3125V18H99.8633V5.32031H101.973L102.031 7.3125ZM105.992 5.25L105.98 7.26562C105.801 7.22656 105.629 7.20312 105.465 7.19531C105.309 7.17969 105.129 7.17188 104.926 7.17188C104.426 7.17188 103.984 7.25 103.602 7.40625C103.219 7.5625 102.895 7.78125 102.629 8.0625C102.363 8.34375 102.152 8.67969 101.996 9.07031C101.848 9.45312 101.75 9.875 101.703 10.3359L101.094 10.6875C101.094 9.92188 101.168 9.20312 101.316 8.53125C101.473 7.85938 101.711 7.26562 102.031 6.75C102.352 6.22656 102.758 5.82031 103.25 5.53125C103.75 5.23438 104.344 5.08594 105.031 5.08594C105.188 5.08594 105.367 5.10547 105.57 5.14453C105.773 5.17578 105.914 5.21094 105.992 5.25ZM115.379 14.6367C115.379 14.3242 115.309 14.0352 115.168 13.7695C115.035 13.4961 114.758 13.25 114.336 13.0312C113.922 12.8047 113.297 12.6094 112.461 12.4453C111.758 12.2969 111.121 12.1211 110.551 11.918C109.988 11.7148 109.508 11.4688 109.109 11.1797C108.719 10.8906 108.418 10.5508 108.207 10.1602C107.996 9.76953 107.891 9.3125 107.891 8.78906C107.891 8.28906 108 7.81641 108.219 7.37109C108.445 6.92578 108.762 6.53125 109.168 6.1875C109.582 5.84375 110.078 5.57422 110.656 5.37891C111.234 5.18359 111.879 5.08594 112.59 5.08594C113.605 5.08594 114.473 5.26562 115.191 5.625C115.91 5.98438 116.461 6.46484 116.844 7.06641C117.227 7.66016 117.418 8.32031 117.418 9.04688H115.25C115.25 8.69531 115.145 8.35547 114.934 8.02734C114.73 7.69141 114.43 7.41406 114.031 7.19531C113.641 6.97656 113.16 6.86719 112.59 6.86719C111.988 6.86719 111.5 6.96094 111.125 7.14844C110.758 7.32812 110.488 7.55859 110.316 7.83984C110.152 8.12109 110.07 8.41797 110.07 8.73047C110.07 8.96484 110.109 9.17578 110.188 9.36328C110.273 9.54297 110.422 9.71094 110.633 9.86719C110.844 10.0156 111.141 10.1562 111.523 10.2891C111.906 10.4219 112.395 10.5547 112.988 10.6875C114.027 10.9219 114.883 11.2031 115.555 11.5312C116.227 11.8594 116.727 12.2617 117.055 12.7383C117.383 13.2148 117.547 13.793 117.547 14.4727C117.547 15.0273 117.43 15.5352 117.195 15.9961C116.969 16.457 116.637 16.8555 116.199 17.1914C115.77 17.5195 115.254 17.7773 114.652 17.9648C114.059 18.1445 113.391 18.2344 112.648 18.2344C111.531 18.2344 110.586 18.0352 109.812 17.6367C109.039 17.2383 108.453 16.7227 108.055 16.0898C107.656 15.457 107.457 14.7891 107.457 14.0859H109.637C109.668 14.6797 109.84 15.1523 110.152 15.5039C110.465 15.8477 110.848 16.0938 111.301 16.2422C111.754 16.3828 112.203 16.4531 112.648 16.4531C113.242 16.4531 113.738 16.375 114.137 16.2188C114.543 16.0625 114.852 15.8477 115.062 15.5742C115.273 15.3008 115.379 14.9883 115.379 14.6367Z" fill="black"/>
</svg>
